<svg width="40" height="40" viewBox="0 0 40 40" fill="none" xmlns="http://www.w3.org/2000/svg">
<g id="briefcase-svgrepo-com (3) 1">
<path id="Vector" d="M6.66675 20V15C6.66675 14.0795 7.41295 13.3333 8.33341 13.3333H15.0001M6.66675 20V28.3333C6.66675 29.2538 7.41295 30 8.33341 30H31.6667C32.5872 30 33.3334 29.2538 33.3334 28.3333V20M6.66675 20L18.3334 21.6667H21.6667L33.3334 20M15.0001 13.3333V11.6667C15.0001 10.7462 15.7463 10 16.6667 10H23.3334C24.2539 10 25.0001 10.7462 25.0001 11.6667V13.3333M15.0001 13.3333H25.0001M33.3334 20V15C33.3334 14.0795 32.5872 13.3333 31.6667 13.3333H25.0001M18.3334 24.1667H21.6667" stroke="#FF1013" stroke-width="2" stroke-linecap="round" stroke-linejoin="round"/>
</g>
</svg>
