<svg width="80" height="80" viewBox="0 0 80 80" fill="none" xmlns="http://www.w3.org/2000/svg">
<g id="carbon:graphical-data-flow">
<path id="Vector" d="M70.0001 75.0002H55.0001C53.6744 74.9988 52.4034 74.4716 51.466 73.5342C50.5286 72.5969 50.0014 71.3259 50.0001 70.0002V55.0002C50.0014 53.6745 50.5286 52.4035 51.466 51.4661C52.4034 50.5287 53.6744 50.0015 55.0001 50.0002H70.0001C71.3258 50.0015 72.5968 50.5287 73.5342 51.4661C74.4716 52.4035 74.9988 53.6745 75.0001 55.0002V70.0002C74.9988 71.3259 74.4716 72.5969 73.5342 73.5342C72.5968 74.4716 71.3258 74.9988 70.0001 75.0002ZM55.0001 55.0002V70.0002H70.0001V55.0002H55.0001ZM45.0001 65.0002H30.0001C28.0116 64.9982 26.1051 64.2074 24.699 62.8013C23.2929 61.3952 22.5021 59.4887 22.5001 57.5002V47.5002H27.5001V57.5002C27.5008 58.163 27.7644 58.7985 28.2331 59.2672C28.7018 59.7359 29.3373 59.9995 30.0001 60.0002H45.0001V65.0002ZM65.0001 45.0002H60.0001V37.5002C59.9994 36.8373 59.7358 36.2018 59.2671 35.7331C58.7984 35.2644 58.1629 35.0008 57.5001 35.0002H45.0001V30.0002H57.5001C59.4886 30.0022 61.3951 30.793 62.8012 32.1991C64.2073 33.6052 64.9981 35.5117 65.0001 37.5002V45.0002ZM37.5001 45.0002C37.0642 45.0005 36.6359 44.8867 36.2576 44.6702L25.0001 38.2202L13.7426 44.6702C13.3204 44.9119 12.8368 45.0253 12.3511 44.9962C11.8655 44.9672 11.3988 44.7971 11.0084 44.5067C10.618 44.2164 10.3208 43.8184 10.1532 43.3616C9.98568 42.9049 9.95505 42.4091 10.0651 41.9352L12.7176 30.5052L5.67261 22.9552C5.36469 22.6248 5.15202 22.2172 5.05719 21.7756C4.96237 21.334 4.98893 20.875 5.13405 20.4474C5.27917 20.0197 5.53744 19.6393 5.88141 19.3466C6.22538 19.054 6.64221 18.8599 7.08761 18.7852L17.5876 17.0302L22.7526 6.40518C22.9558 5.98811 23.271 5.63579 23.663 5.38765C24.055 5.13951 24.5083 5.00535 24.9722 5.00016C25.4361 4.99497 25.8923 5.11896 26.2897 5.35827C26.6871 5.59758 27.0102 5.94276 27.2226 6.35518L32.7326 17.0302L42.9251 18.7852C43.3695 18.8618 43.7848 19.0571 44.1272 19.3505C44.4696 19.6439 44.7263 20.0245 44.87 20.4519C45.0138 20.8793 45.0393 21.3376 44.9438 21.7783C44.8483 22.219 44.6354 22.6256 44.3276 22.9552L37.2826 30.5052L39.9326 41.9352C40.0176 42.3015 40.0188 42.6824 39.9362 43.0493C39.8536 43.4162 39.6893 43.7597 39.4555 44.0543C39.2217 44.3489 38.9245 44.5869 38.5859 44.7507C38.2473 44.9145 37.8762 44.9998 37.5001 45.0002ZM25.0001 32.5002C25.0001 32.5002 25.8576 32.9502 26.2426 33.1727L33.7676 37.4827L31.8076 29.0402L37.5126 22.9277L29.4301 21.5352L25.0676 13.0802L20.9576 21.5352L12.5051 22.9477L18.1901 29.0402L16.2301 37.4827L23.7551 33.1727C24.1451 32.9502 25.0001 32.5002 25.0001 32.5002Z" fill="#FF1013"/>
</g>
</svg>
