<svg width="80" height="80" viewBox="0 0 80 80" fill="none" xmlns="http://www.w3.org/2000/svg">
<g id="carbon:plan">
<path id="Vector" d="M77.5 20C77.5 19 77 18.25 76.25 17.75L58.75 7.75C58.25 7.5 58 7.5 57.5 7.5C57 7.5 56.75 7.5 56.25 7.75L40 17L23.75 7.75C23.25 7.5 23 7.5 22.5 7.5C22 7.5 21.75 7.5 21.25 7.75L3.75 17.75C3 18.25 2.5 19 2.5 20V70C2.5 71.5 3.5 72.5 5 72.5C5.5 72.5 5.75 72.25 6.25 72.25L22.5 63L38.75 72.25C39.25 72.5 39.5 72.5 40 72.5C40.5 72.5 40.75 72.5 41.25 72.25L57.5 63L73.75 72.25C74 72.5 74.5 72.5 75 72.5C76.5 72.5 77.5 71.5 77.5 70V20ZM7.5 21.5L20 14.25V58.5L7.5 65.75V21.5ZM37.5 65.75L25 58.5V14.25L37.5 21.5V65.75ZM55 58.5L42.5 65.75V21.5L55 14.25V58.5ZM60 58.5V14.25L72.5 21.5V65.75L60 58.5Z" fill="#FF1013"/>
</g>
</svg>
