<svg width="81" height="80" viewBox="0 0 81 80" fill="none" xmlns="http://www.w3.org/2000/svg">
<g id="dashicons:money-alt">
<path id="Vector" d="M42.65 36C41.05 35.6 39.45 34.8 38.25 33.6C37.05 33.2 36.65 32 36.65 31.2C36.65 30.4 37.05 29.2 37.85 28.8C39.05 28 40.25 27.2 41.45 27.6C43.85 27.6 45.85 28.8 47.05 30.4L50.65 25.6C49.45 24.4 48.25 23.6 47.05 22.8C45.85 22 44.25 21.6 42.65 21.6V16H37.85V21.6C35.85 22 33.85 23.2 32.25 24.8C30.65 26.8 29.45 29.2 29.85 31.6C29.85 34 30.65 36.4 32.25 38C34.25 40 37.05 41.2 39.45 42.4C40.65 42.8 42.25 43.6 43.45 44.4C44.25 45.2 44.65 46.4 44.65 47.6C44.65 48.8 44.25 50 43.45 51.2C42.25 52.4 40.65 52.8 39.45 52.8C37.85 52.8 35.85 52.4 34.65 51.2C33.45 50.4 32.25 49.2 31.45 48L27.45 52.4C28.65 54 29.85 55.2 31.45 56.4C33.45 57.6 35.85 58.8 38.25 58.8V64H42.65V58C45.05 57.6 47.05 56.4 48.65 54.8C50.65 52.8 51.85 49.6 51.85 46.8C51.85 44.4 51.05 41.6 49.05 40C47.05 38 45.05 36.8 42.65 36ZM40.25 8C22.65 8 8.25 22.4 8.25 40C8.25 57.6 22.65 72 40.25 72C57.85 72 72.25 57.6 72.25 40C72.25 22.4 57.85 8 40.25 8ZM40.25 67.6C25.05 67.6 12.65 55.2 12.65 40C12.65 24.8 25.05 12.4 40.25 12.4C55.45 12.4 67.85 24.8 67.85 40C67.85 55.2 55.45 67.6 40.25 67.6Z" fill="#FF1013"/>
</g>
</svg>
