<svg width="45" height="45" viewBox="0 0 45 45" fill="none" xmlns="http://www.w3.org/2000/svg">
<g id="fi-rr-arrow-small-right 1">
<g id="Group">
<path id="Vector" d="M24.6019 11.7995C24.2504 12.1511 24.0529 12.6279 24.0529 13.1251C24.0529 13.6223 24.2504 14.0991 24.6019 14.4507L30.7744 20.6251L11.25 20.6382C10.7527 20.6382 10.2758 20.8358 9.92418 21.1874C9.57254 21.539 9.375 22.0159 9.375 22.5132C9.375 23.0105 9.57254 23.4874 9.92418 23.839C10.2758 24.1907 10.7527 24.3882 11.25 24.3882L30.7762 24.3751L24.6019 30.5495C24.4228 30.7224 24.28 30.9293 24.1817 31.1581C24.0834 31.3868 24.0317 31.6329 24.0295 31.8818C24.0274 32.1308 24.0748 32.3777 24.1691 32.6081C24.2634 32.8386 24.4026 33.0479 24.5786 33.224C24.7547 33.4 24.964 33.5392 25.1945 33.6335C25.4249 33.7278 25.6718 33.7752 25.9208 33.7731C26.1697 33.7709 26.4158 33.7192 26.6445 33.6209C26.8733 33.5226 27.0802 33.3798 27.2531 33.2007L33.9769 26.4788C34.4993 25.9565 34.9137 25.3364 35.1965 24.6538C35.4792 23.9713 35.6247 23.2398 35.6247 22.501C35.6247 21.7623 35.4792 21.0307 35.1965 20.3482C34.9137 19.6657 34.4993 19.0456 33.9769 18.5232L27.2531 11.7995C26.9015 11.448 26.4247 11.2505 25.9275 11.2505C25.4303 11.2505 24.9535 11.448 24.6019 11.7995Z" fill="#FCFCFC"/>
</g>
</g>
</svg>
