<svg width="45" height="45" viewBox="0 0 45 45" fill="none" xmlns="http://www.w3.org/2000/svg">
<g id="fi-rr-arrow-small-right 1" opacity="0.8">
<g id="Group">
<path id="Vector" d="M20.3981 11.7995C20.7496 12.1511 20.9471 12.6279 20.9471 13.1251C20.9471 13.6223 20.7496 14.0991 20.3981 14.4507L14.2256 20.6251L33.75 20.6382C34.2473 20.6382 34.7242 20.8358 35.0758 21.1874C35.4275 21.539 35.625 22.0159 35.625 22.5132C35.625 23.0105 35.4275 23.4874 35.0758 23.839C34.7242 24.1907 34.2473 24.3882 33.75 24.3882L14.2238 24.3751L20.3981 30.5495C20.5772 30.7224 20.72 30.9293 20.8183 31.1581C20.9166 31.3868 20.9683 31.6329 20.9705 31.8818C20.9726 32.1308 20.9252 32.3777 20.8309 32.6081C20.7366 32.8386 20.5974 33.0479 20.4214 33.224C20.2453 33.4 20.036 33.5392 19.8055 33.6335C19.5751 33.7278 19.3282 33.7752 19.0792 33.7731C18.8303 33.7709 18.5842 33.7192 18.3555 33.6209C18.1267 33.5226 17.9198 33.3798 17.7469 33.2007L11.0231 26.4788C10.5007 25.9565 10.0863 25.3364 9.80353 24.6538C9.52079 23.9713 9.37527 23.2398 9.37527 22.501C9.37527 21.7623 9.52079 21.0307 9.80353 20.3482C10.0863 19.6657 10.5007 19.0456 11.0231 18.5232L17.7469 11.7995C18.0985 11.448 18.5753 11.2505 19.0725 11.2505C19.5697 11.2505 20.0465 11.448 20.3981 11.7995Z" fill="#171836"/>
</g>
</g>
</svg>
