<svg width="80" height="80" viewBox="0 0 80 80" fill="none" xmlns="http://www.w3.org/2000/svg">
<g id="fluent-mdl2:code">
<path id="Vector" d="M5 35C6.35417 35 7.64323 34.7396 8.86719 34.2188C10.0911 33.6979 11.1458 32.9818 12.0312 32.0703C12.9167 31.1589 13.6328 30.1042 14.1797 28.9062C14.7266 27.7083 15 26.4062 15 25C15 23.151 14.9609 21.3021 14.8828 19.4531C14.8047 17.6042 14.8568 15.8073 15.0391 14.0625C15.2214 12.3177 15.638 10.612 16.2891 8.94531C16.9401 7.27865 17.9688 5.75521 19.375 4.375C20.7812 2.96875 22.4089 1.88802 24.2578 1.13281C26.1068 0.377604 28.0208 0 30 0V5C28.6198 5 27.3307 5.26042 26.1328 5.78125C24.9349 6.30208 23.8802 7.01823 22.9688 7.92969C22.0573 8.84115 21.3411 9.90885 20.8203 11.1328C20.2995 12.3568 20.026 13.6458 20 15C20 16.4583 20.026 17.8906 20.0781 19.2969C20.1302 20.7031 20.1432 22.0964 20.1172 23.4766C20.0911 24.8568 19.9609 26.1849 19.7266 27.4609C19.4922 28.737 19.1406 29.974 18.6719 31.1719C18.2031 32.3698 17.526 33.4896 16.6406 34.5312C15.7552 35.5729 14.6484 36.5625 13.3203 37.5C14.6745 38.4115 15.7812 39.401 16.6406 40.4688C17.5 41.5365 18.1771 42.6562 18.6719 43.8281C19.1667 45 19.5182 46.224 19.7266 47.5C19.9349 48.776 20.0521 50.1042 20.0781 51.4844C20.1042 52.8646 20.1042 54.2578 20.0781 55.6641C20.0521 57.0703 20.026 58.5156 20 60C20 61.3802 20.2604 62.6693 20.7812 63.8672C21.3021 65.0651 22.0182 66.1198 22.9297 67.0312C23.8411 67.9427 24.8958 68.6589 26.0938 69.1797C27.2917 69.7005 28.5938 69.974 30 70V75C28.0208 75 26.1068 74.6224 24.2578 73.8672C22.4089 73.112 20.7812 72.0312 19.375 70.625C17.9688 69.2188 16.9531 67.6953 16.3281 66.0547C15.7031 64.4141 15.2865 62.7214 15.0781 60.9766C14.8698 59.2318 14.8047 57.4219 14.8828 55.5469C14.9609 53.6719 15 51.8229 15 50C15 48.6458 14.7396 47.3568 14.2188 46.1328C13.6979 44.9089 12.9818 43.8542 12.0703 42.9688C11.1589 42.0833 10.0911 41.3672 8.86719 40.8203C7.64323 40.2734 6.35417 40 5 40V35ZM50 0C51.9792 0 53.8932 0.377604 55.7422 1.13281C57.5911 1.88802 59.2188 2.96875 60.625 4.375C62.0312 5.78125 63.0469 7.30469 63.6719 8.94531C64.2969 10.5859 64.7135 12.2786 64.9219 14.0234C65.1302 15.7682 65.1953 17.5781 65.1172 19.4531C65.0391 21.3281 65 23.1771 65 25C65 26.3802 65.2604 27.6693 65.7812 28.8672C66.3021 30.0651 67.0182 31.1198 67.9297 32.0312C68.8411 32.9427 69.8958 33.6589 71.0938 34.1797C72.2917 34.7005 73.5938 34.974 75 35V40C73.6198 40 72.3307 40.2604 71.1328 40.7812C69.9349 41.3021 68.8802 42.0182 67.9688 42.9297C67.0573 43.8411 66.3411 44.9089 65.8203 46.1328C65.2995 47.3568 65.026 48.6458 65 50C65 51.849 65.0391 53.6979 65.1172 55.5469C65.1953 57.3958 65.1432 59.1927 64.9609 60.9375C64.7786 62.6823 64.362 64.388 63.7109 66.0547C63.0599 67.7214 62.0312 69.2448 60.625 70.625C59.2188 72.0312 57.5911 73.112 55.7422 73.8672C53.8932 74.6224 51.9792 75 50 75V70C51.3542 70 52.6432 69.7396 53.8672 69.2188C55.0911 68.6979 56.1458 67.9818 57.0312 67.0703C57.9167 66.1589 58.6328 65.1042 59.1797 63.9062C59.7266 62.7083 60 61.4062 60 60C60 58.5417 59.974 57.1094 59.9219 55.7031C59.8698 54.2969 59.8568 52.9036 59.8828 51.5234C59.9089 50.1432 60.0391 48.8151 60.2734 47.5391C60.5078 46.263 60.8594 45.026 61.3281 43.8281C61.7969 42.6302 62.474 41.5104 63.3594 40.4688C64.2448 39.4271 65.3516 38.4375 66.6797 37.5C65.3255 36.5885 64.2188 35.599 63.3594 34.5312C62.5 33.4635 61.8229 32.3438 61.3281 31.1719C60.8333 30 60.4818 28.776 60.2734 27.5C60.0651 26.224 59.9479 24.8958 59.9219 23.5156C59.8958 22.1354 59.8958 20.7422 59.9219 19.3359C59.9479 17.9297 59.974 16.4844 60 15C60 13.6458 59.7396 12.3568 59.2188 11.1328C58.6979 9.90885 57.9818 8.85417 57.0703 7.96875C56.1589 7.08333 55.0911 6.36719 53.8672 5.82031C52.6432 5.27344 51.3542 5 50 5V0Z" fill="#FF1013"/>
</g>
</svg>
