<svg width="40" height="40" viewBox="0 0 40 40" fill="none" xmlns="http://www.w3.org/2000/svg">
<g id="fluent:people-team-toolbox-20-regular">
<path id="Vector" d="M17 9C17 8.20435 17.3161 7.44129 17.8787 6.87868C18.4413 6.31607 19.2044 6 20 6C20.7956 6 21.5587 6.31607 22.1213 6.87868C22.6839 7.44129 23 8.20435 23 9C23 9.79565 22.6839 10.5587 22.1213 11.1213C21.5587 11.6839 20.7956 12 20 12C19.2044 12 18.4413 11.6839 17.8787 11.1213C17.3161 10.5587 17 9.79565 17 9ZM20 4C18.6739 4 17.4021 4.52678 16.4645 5.46447C15.5268 6.40215 15 7.67392 15 9C15 10.3261 15.5268 11.5979 16.4645 12.5355C17.4021 13.4732 18.6739 14 20 14C21.3261 14 22.5979 13.4732 23.5355 12.5355C24.4732 11.5979 25 10.3261 25 9C25 7.67392 24.4732 6.40215 23.5355 5.46447C22.5979 4.52678 21.3261 4 20 4ZM29 10C29 9.46957 29.2107 8.96086 29.5858 8.58579C29.9609 8.21071 30.4696 8 31 8C31.5304 8 32.0391 8.21071 32.4142 8.58579C32.7893 8.96086 33 9.46957 33 10C33 10.5304 32.7893 11.0391 32.4142 11.4142C32.0391 11.7893 31.5304 12 31 12C30.4696 12 29.9609 11.7893 29.5858 11.4142C29.2107 11.0391 29 10.5304 29 10ZM31 6C29.9391 6 28.9217 6.42143 28.1716 7.17157C27.4214 7.92172 27 8.93913 27 10C27 11.0609 27.4214 12.0783 28.1716 12.8284C28.9217 13.5786 29.9391 14 31 14C32.0609 14 33.0783 13.5786 33.8284 12.8284C34.5786 12.0783 35 11.0609 35 10C35 8.93913 34.5786 7.92172 33.8284 7.17157C33.0783 6.42143 32.0609 6 31 6ZM9 8C8.46957 8 7.96086 8.21071 7.58579 8.58579C7.21071 8.96086 7 9.46957 7 10C7 10.5304 7.21071 11.0391 7.58579 11.4142C7.96086 11.7893 8.46957 12 9 12C9.53043 12 10.0391 11.7893 10.4142 11.4142C10.7893 11.0391 11 10.5304 11 10C11 9.46957 10.7893 8.96086 10.4142 8.58579C10.0391 8.21071 9.53043 8 9 8ZM5 10C5 8.93913 5.42143 7.92172 6.17157 7.17157C6.92172 6.42143 7.93913 6 9 6C10.0609 6 11.0783 6.42143 11.8284 7.17157C12.5786 7.92172 13 8.93913 13 10C13 11.0609 12.5786 12.0783 11.8284 12.8284C11.0783 13.5786 10.0609 14 9 14C7.93913 14 6.92172 13.5786 6.17157 12.8284C5.42143 12.0783 5 11.0609 5 10ZM10 30C10.066 30 10.134 30 10.2 29.996C10.336 30.672 10.542 31.326 10.808 31.946C9.95956 32.0613 9.09627 31.9937 8.27613 31.7477C7.456 31.5017 6.69801 31.083 6.05311 30.5197C5.40821 29.9565 4.89133 29.2617 4.5372 28.4822C4.18308 27.7026 3.99991 26.8562 4 26V18.5C4 17.12 5.12 16 6.5 16H10.758C10.3573 16.5982 10.1069 17.2843 10.028 18H6.5C6.36739 18 6.24021 18.0527 6.14645 18.1464C6.05268 18.2402 6 18.3674 6 18.5V26C6 27.0609 6.42143 28.0783 7.17157 28.8284C7.92172 29.5786 8.93913 30 10 30ZM34 19C35.0025 19.7516 35.6863 20.8522 35.916 22.084L36 22.1V18.5C36 17.12 34.88 16 33.5 16H29.242C29.634 16.584 29.892 17.266 29.972 18H33.5C33.6326 18 33.7598 18.0527 33.8536 18.1464C33.9473 18.2402 34 18.3674 34 18.5V19ZM31 20H27C26.2044 20 25.4413 20.3161 24.8787 20.8787C24.3161 21.4413 24 22.2044 24 23V24H23C22.2044 24 21.4413 24.3161 20.8787 24.8787C20.3161 25.4413 20 26.2044 20 27V30H24V29C24 28.7348 24.1054 28.4804 24.2929 28.2929C24.4804 28.1054 24.7348 28 25 28C25.2652 28 25.5196 28.1054 25.7071 28.2929C25.8946 28.4804 26 28.7348 26 29V30H32V29C32 28.7348 32.1054 28.4804 32.2929 28.2929C32.4804 28.1054 32.7348 28 33 28C33.2652 28 33.5196 28.1054 33.7071 28.2929C33.8946 28.4804 34 28.7348 34 29V30H38V27C38 26.2044 37.6839 25.4413 37.1213 24.8787C36.5587 24.3161 35.7956 24 35 24H34V23C34 22.2044 33.6839 21.4413 33.1213 20.8787C32.5587 20.3161 31.7956 20 31 20ZM14.5 18C14.3674 18 14.2402 18.0527 14.1464 18.1464C14.0527 18.2402 14 18.3674 14 18.5V28C14 30.612 15.67 32.836 18 33.66V35C18 35.26 18.02 35.514 18.058 35.762C16.3277 35.3283 14.7918 34.329 13.6943 32.9227C12.5967 31.5165 12.0004 29.7839 12 28V18.5C12 17.12 13.12 16 14.5 16H25.5C26.71 16 27.72 16.86 27.95 18H14.5ZM26 24V23C26 22.7348 26.1054 22.4804 26.2929 22.2929C26.4804 22.1054 26.7348 22 27 22H31C31.2652 22 31.5196 22.1054 31.7071 22.2929C31.8946 22.4804 32 22.7348 32 23V24H26ZM34 32V33C34 33.2652 33.8946 33.5196 33.7071 33.7071C33.5196 33.8946 33.2652 34 33 34C32.7348 34 32.4804 33.8946 32.2929 33.7071C32.1054 33.5196 32 33.2652 32 33V32H26V33C26 33.2652 25.8946 33.5196 25.7071 33.7071C25.5196 33.8946 25.2652 34 25 34C24.7348 34 24.4804 33.8946 24.2929 33.7071C24.1054 33.5196 24 33.2652 24 33V32H20V35C20 35.7956 20.3161 36.5587 20.8787 37.1213C21.4413 37.6839 22.2044 38 23 38H35C35.7956 38 36.5587 37.6839 37.1213 37.1213C37.6839 36.5587 38 35.7956 38 35V32H34Z" fill="#FF1013"/>
</g>
</svg>
