<svg width="80" height="81" viewBox="0 0 80 81" fill="none" xmlns="http://www.w3.org/2000/svg">
<g id="ic:outline-search">
<path id="Vector" d="M51.6667 47.1667H49.0333L48.1 46.2667C51.4796 42.3467 53.337 37.3423 53.3333 32.1667C53.3333 27.8814 52.0626 23.6924 49.6819 20.1293C47.3011 16.5663 43.9172 13.7892 39.9581 12.1493C35.9991 10.5094 31.6426 10.0803 27.4397 10.9163C23.2368 11.7523 19.3762 13.8159 16.346 16.846C13.3159 19.8762 11.2523 23.7368 10.4163 27.9397C9.58032 32.1426 10.0094 36.4991 11.6493 40.4581C13.2892 44.4172 16.0663 47.8011 19.6293 50.1819C23.1924 52.5626 27.3814 53.8333 31.6667 53.8333C37.0333 53.8333 41.9667 51.8667 45.7667 48.6L46.6667 49.5333V52.1667L63.3333 68.8L68.3 63.8333L51.6667 47.1667ZM31.6667 47.1667C23.3667 47.1667 16.6667 40.4667 16.6667 32.1667C16.6667 23.8667 23.3667 17.1667 31.6667 17.1667C39.9667 17.1667 46.6667 23.8667 46.6667 32.1667C46.6667 40.4667 39.9667 47.1667 31.6667 47.1667Z" fill="#FF1013"/>
</g>
</svg>
