<svg width="24" height="24" viewBox="0 0 24 24" fill="none" xmlns="http://www.w3.org/2000/svg">
<g id="Icon">
<g id="Group">
<path id="Vector" d="M16.5546 6.93207C16.0227 6.93207 15.5913 7.36354 15.5913 7.89537C15.5913 8.42719 16.0227 8.85867 16.5546 8.85867C17.0864 8.85867 17.5179 8.42719 17.5179 7.89537C17.5179 7.36354 17.0864 6.93207 16.5546 6.93207Z" fill="#030303"/>
<path id="Vector_2" d="M12.2758 8.16595C10.0461 8.16595 8.23389 9.98018 8.23389 12.2078C8.23389 14.4355 10.0481 16.2497 12.2758 16.2497C14.5034 16.2497 16.3176 14.4355 16.3176 12.2078C16.3176 9.98018 14.5034 8.16595 12.2758 8.16595ZM12.2758 14.7987C10.8469 14.7987 9.68687 13.6367 9.68687 12.2098C9.68687 10.7829 10.8489 9.62094 12.2758 9.62094C13.7027 9.62094 14.8646 10.7829 14.8646 12.2098C14.8646 13.6367 13.7027 14.7987 12.2758 14.7987Z" fill="#030303"/>
<path id="Vector_3" d="M15.4854 20.4163H8.93087C6.21155 20.4163 4 18.2047 4 15.4854V8.9309C4 6.21158 6.21155 4 8.93087 4H15.4854C18.2047 4 20.4163 6.21158 20.4163 8.9309V15.4854C20.4163 18.2047 18.2047 20.4163 15.4854 20.4163ZM8.93087 5.5453C7.06447 5.5453 5.54529 7.06451 5.54529 8.9309V15.4854C5.54529 17.3518 7.06447 18.871 8.93087 18.871H15.4854C17.3518 18.871 18.871 17.3518 18.871 15.4854V8.9309C18.871 7.0625 17.3518 5.5453 15.4854 5.5453H8.93087Z" fill="#030303"/>
</g>
</g>
</svg>
