<svg width="40" height="40" viewBox="0 0 40 40" fill="none" xmlns="http://www.w3.org/2000/svg">
<g id="medal-ribbon-star-svgrepo-com 1">
<path id="Vector" d="M18.5765 11.7042C19.2098 10.5681 19.5265 10 20 10C20.4735 10 20.7902 10.5681 21.4235 11.7042L21.5873 11.9981C21.7672 12.321 21.8572 12.4824 21.9975 12.5889C22.1378 12.6954 22.3125 12.7349 22.662 12.814L22.9802 12.886C24.21 13.1643 24.825 13.3034 24.9713 13.7739C25.1177 14.2443 24.6983 14.7345 23.86 15.715L23.643 15.9686C23.4048 16.2472 23.2857 16.3865 23.232 16.5588C23.1785 16.7312 23.1965 16.917 23.2325 17.2888L23.2653 17.6272C23.392 18.9353 23.4555 19.5893 23.0725 19.8802C22.6893 20.1708 22.1137 19.9058 20.9622 19.3757L20.6643 19.2385C20.337 19.0878 20.1735 19.0125 20 19.0125C19.8265 19.0125 19.663 19.0878 19.3357 19.2385L19.0378 19.3757C17.8863 19.9058 17.3107 20.1708 16.9275 19.8802C16.5446 19.5893 16.6079 18.9353 16.7347 17.6272L16.7675 17.2888C16.8035 16.917 16.8215 16.7312 16.768 16.5588C16.7143 16.3865 16.5952 16.2472 16.357 15.9686L16.14 15.715C15.3016 14.7345 14.8824 14.2443 15.0287 13.7739C15.175 13.3034 15.7899 13.1643 17.0198 12.886L17.338 12.814C17.6875 12.7349 17.8622 12.6954 18.0025 12.5889C18.1428 12.4824 18.2328 12.321 18.4127 11.9981L18.5765 11.7042Z" stroke="#FF1013" stroke-width="2"/>
<path id="Vector_2" d="M12.2518 25L11.1904 28.8717C10.1432 32.6913 9.61955 34.6012 10.3183 35.6468C10.5632 36.0132 10.8917 36.3073 11.2729 36.5013C12.3606 37.0552 14.04 36.1802 17.3988 34.43C18.5165 33.8477 19.0753 33.5565 19.669 33.4932C19.8892 33.4697 20.1108 33.4697 20.331 33.4932C20.9247 33.5565 21.4835 33.8477 22.6012 34.43C25.96 36.1802 27.6395 37.0552 28.7272 36.5013C29.1083 36.3073 29.4368 36.0132 29.6817 35.6468C30.3805 34.6012 29.8568 32.6913 28.8097 28.8717L27.7482 25" stroke="#FF1013" stroke-width="2" stroke-linecap="round"/>
<path id="Vector_3" d="M9.16659 10.6612C8.629 12.0023 8.33325 13.4665 8.33325 14.9997C8.33325 21.443 13.5566 26.6663 19.9999 26.6663C26.4433 26.6663 31.6666 21.443 31.6666 14.9997C31.6666 8.55636 26.4433 3.33301 19.9999 3.33301C18.4668 3.33301 17.0026 3.62876 15.6614 4.16634" stroke="#FF1013" stroke-width="2" stroke-linecap="round"/>
</g>
</svg>
