<svg width="80" height="80" viewBox="0 0 80 80" fill="none" xmlns="http://www.w3.org/2000/svg">
<g id="Property 1=Variant3" clip-path="url(#clip0_47_2730)">
<path id="Vector" d="M43.3329 3.33377C43.3329 2.44972 43.6841 1.60187 44.3092 0.976751C44.9343 0.35163 45.7822 0.000440414 46.6662 0.000440414C55.5038 0.0101457 63.9766 3.52516 70.2257 9.77427C76.4748 16.0234 79.9898 24.4962 79.9995 33.3338C79.9995 34.2178 79.6483 35.0657 79.0232 35.6908C78.3981 36.3159 77.5502 36.6671 76.6662 36.6671C75.7821 36.6671 74.9343 36.3159 74.3092 35.6908C73.6841 35.0657 73.3329 34.2178 73.3329 33.3338C73.3249 26.2638 70.5129 19.4856 65.5136 14.4864C60.5144 9.48711 53.7362 6.67505 46.6662 6.66711C45.7822 6.66711 44.9343 6.31592 44.3092 5.6908C43.6841 5.06568 43.3329 4.21783 43.3329 3.33377ZM46.6662 20.0004C50.2024 20.0004 53.5938 21.4052 56.0943 23.9057C58.5948 26.4062 59.9995 29.7976 59.9995 33.3338C59.9995 34.2178 60.3507 35.0657 60.9759 35.6908C61.601 36.3159 62.4488 36.6671 63.3329 36.6671C64.2169 36.6671 65.0648 36.3159 65.6899 35.6908C66.315 35.0657 66.6662 34.2178 66.6662 33.3338C66.6609 28.0311 64.5521 22.9471 60.8025 19.1975C57.0529 15.4479 51.9689 13.3391 46.6662 13.3338C45.7822 13.3338 44.9343 13.685 44.3092 14.3101C43.6841 14.9352 43.3329 15.7831 43.3329 16.6671C43.3329 17.5512 43.6841 18.399 44.3092 19.0241C44.9343 19.6493 45.7822 20.0004 46.6662 20.0004ZM76.9762 55.7971C78.9079 57.7342 79.9927 60.3582 79.9927 63.0938C79.9927 65.8294 78.9079 68.4534 76.9762 70.3904L73.9429 73.8871C46.6429 100.024 -19.7903 33.6071 5.94295 6.22044L9.77628 2.88711C11.7155 1.00936 14.316 -0.029396 17.0153 -0.00444345C19.7145 0.0205091 22.2954 1.10717 24.1996 3.02044C24.3029 3.12377 30.4796 11.1471 30.4796 11.1471C32.3124 13.0725 33.3326 15.6302 33.3283 18.2885C33.3239 20.9467 32.2953 23.501 30.4563 25.4204L26.5963 30.2738C28.7324 35.4641 31.8731 40.1813 35.8379 44.1541C39.8028 48.1269 44.5135 51.2771 49.6996 53.4238L54.5829 49.5405C56.5026 47.7028 59.0564 46.6754 61.7139 46.6717C64.3713 46.668 66.928 47.6882 68.8529 49.5204C68.8529 49.5204 76.8729 55.6938 76.9762 55.7971ZM72.3895 60.6438C72.3895 60.6438 64.4129 54.5071 64.3095 54.4038C63.6228 53.7229 62.6949 53.3408 61.7279 53.3408C60.7608 53.3408 59.8329 53.7229 59.1462 54.4038C59.0562 54.4971 52.3329 59.8538 52.3329 59.8538C51.8798 60.2144 51.3406 60.4508 50.7684 60.5396C50.1962 60.6285 49.6107 60.5667 49.0696 60.3604C42.3511 57.859 36.2487 53.9429 31.1757 48.8774C26.1027 43.8118 22.1776 37.7152 19.6663 31.0004C19.4436 30.452 19.371 29.8541 19.4559 29.2682C19.5409 28.6824 19.7803 28.1298 20.1496 27.6671C20.1496 27.6671 25.5063 20.9404 25.5963 20.8538C26.2772 20.1671 26.6592 19.2392 26.6592 18.2721C26.6592 17.3051 26.2772 16.3772 25.5963 15.6904C25.4929 15.5904 19.3563 7.60711 19.3563 7.60711C18.6593 6.98213 17.7496 6.64743 16.8138 6.6716C15.8779 6.69577 14.9868 7.07699 14.3229 7.73711L10.4896 11.0704C-8.31703 33.6838 49.2529 88.0604 69.0695 69.3338L72.1062 65.8338C72.8178 65.1746 73.2452 64.2646 73.2981 63.2961C73.351 62.3276 73.0251 61.3765 72.3895 60.6438Z" fill="#FF1013"/>
</g>
<defs>
<clipPath id="clip0_47_2730">
<rect width="80" height="80" fill="white"/>
</clipPath>
</defs>
</svg>
