<svg width="24" height="24" viewBox="0 0 24 24" fill="none" xmlns="http://www.w3.org/2000/svg">
<g id="Icon">
<path id="Vector" d="M21.9117 5.92225C21.2437 6.20078 20.5067 6.37198 19.7891 6.48186C20.1314 6.4282 20.631 5.85581 20.8325 5.62583C21.1388 5.2732 21.3927 4.86945 21.5362 4.43505C21.5556 4.40183 21.5694 4.35839 21.5307 4.33284C21.4838 4.31495 21.4535 4.32517 21.4176 4.3405C20.6144 4.73913 19.7836 5.02788 18.9003 5.23231C18.8258 5.2502 18.7733 5.23231 18.7264 5.18887C18.6519 5.11221 18.5829 5.04066 18.5056 4.97933C18.133 4.68547 17.7355 4.45804 17.2856 4.28684C16.6949 4.06452 16.0518 3.96998 15.4142 4.00831C14.7959 4.04664 14.1887 4.20762 13.6394 4.47338C13.0902 4.73913 12.5989 5.10965 12.2069 5.55683C11.8039 6.01934 11.503 6.56363 11.3512 7.14113C11.2049 7.69819 11.216 8.25014 11.3071 8.81486C11.3209 8.90941 11.3126 8.92219 11.2187 8.90941C7.76025 8.43413 4.89241 7.28678 2.56558 4.83112C2.46345 4.7238 2.41105 4.7238 2.32824 4.83879C1.30974 6.25188 1.8038 8.52356 3.07624 9.63767C3.24461 9.78588 3.42124 9.93409 3.60893 10.0721C3.53993 10.0849 2.69254 10.0005 1.93901 9.63767C1.83689 9.5789 1.78725 9.61212 1.77897 9.71945C1.77069 9.87277 1.78445 10.0133 1.80653 10.1794C2.0025 11.6129 3.07349 12.9366 4.54191 13.4528C4.7158 13.5218 4.90901 13.5805 5.0967 13.6086C4.76272 13.6776 4.41765 13.7262 3.45987 13.6546C3.34119 13.6342 3.29428 13.6879 3.3412 13.7952C4.06161 15.6146 5.61834 16.1537 6.78313 16.4629C6.9377 16.4885 7.09502 16.4885 7.25235 16.5217C7.24407 16.5345 7.23307 16.5345 7.22479 16.5473C6.83836 17.0915 5.49968 17.4978 4.87588 17.6997C3.74145 18.0677 2.50491 18.2312 1.30699 18.1213C1.11654 18.0958 1.07513 18.0983 1.02269 18.1213C0.970243 18.152 1.01715 18.1929 1.07788 18.2389C1.32077 18.3871 1.56917 18.52 1.82035 18.6477C2.58215 19.0208 3.37712 19.3198 4.20517 19.5319C8.49172 20.6281 13.322 19.8232 16.5404 16.8616C19.0687 14.5362 19.9547 11.3293 19.9547 8.11981C19.9547 7.9946 20.1148 7.92561 20.2114 7.85917C20.8683 7.40177 21.3982 6.85493 21.8896 6.24421C22 6.10622 22 5.98357 22 5.93502V5.91713C22 5.86602 22 5.88136 21.9144 5.91713L21.9117 5.92225Z" fill="#030303"/>
</g>
</svg>
